<svg width="16" height="16" viewBox="0 0 16 16" fill="none" xmlns="http://www.w3.org/2000/svg">
<path fill-rule="evenodd" clip-rule="evenodd" d="M10.2062 14.0205C10.1395 14.4738 9.72617 14.8338 9.23284 14.8338H6.76617C6.27284 14.8338 5.85951 14.4738 5.79951 13.9872L5.61951 12.7272C5.43951 12.6338 5.26617 12.5338 5.09284 12.4205L3.89284 12.9005C3.42617 13.0738 2.91284 12.8805 2.68617 12.4672L1.46617 10.3538C1.23284 9.91383 1.33284 9.39383 1.70617 9.1005L2.72617 8.30716C2.71951 8.20716 2.71284 8.10716 2.71284 8.00049C2.71284 7.9005 2.71951 7.79383 2.72617 7.69383L1.71284 6.9005C1.31951 6.6005 1.21951 6.06049 1.46617 5.64716L2.69951 3.52049C2.92617 3.10716 3.43951 2.92049 3.89284 3.10049L5.09951 3.58716C5.27284 3.47383 5.44617 3.37383 5.61951 3.28049L5.79951 2.00716C5.85951 1.54049 6.27284 1.17383 6.75951 1.17383H9.22617C9.71951 1.17383 10.1328 1.53383 10.1928 2.02049L10.3728 3.28049C10.5528 3.37383 10.7262 3.47383 10.8995 3.58716L12.0995 3.10716C12.5728 2.93383 13.0862 3.12716 13.3128 3.54049L14.5395 5.66049C14.7795 6.10049 14.6728 6.62049 14.2995 6.91383L13.2862 7.70716C13.2928 7.80716 13.2995 7.90716 13.2995 8.01383C13.2995 8.12049 13.2928 8.2205 13.2862 8.3205L14.2995 9.11383C14.6728 9.41383 14.7795 9.93383 14.5462 10.3538L13.3062 12.5005C13.0795 12.9138 12.5662 13.1005 12.1062 12.9205L10.9062 12.4405C10.7328 12.5538 10.5595 12.6538 10.3862 12.7472L10.2062 14.0205ZM7.07951 13.5005H8.91951L9.16617 11.8005L9.51951 11.6538C9.81284 11.5338 10.1062 11.3605 10.4128 11.1338L10.7128 10.9072L12.2995 11.5472L13.2195 9.94716L11.8662 8.89383L11.9128 8.52049L11.9149 8.50255C11.9342 8.33563 11.9528 8.17427 11.9528 8.00049C11.9528 7.8205 11.9328 7.64716 11.9128 7.48049L11.8662 7.10716L13.2195 6.05383L12.2928 4.45383L10.6995 5.09383L10.3995 4.86049C10.1195 4.64716 9.81951 4.47383 9.51284 4.34716L9.16617 4.20049L8.91951 2.50049H7.07951L6.83284 4.20049L6.47951 4.34049C6.18617 4.46716 5.89284 4.63383 5.58617 4.86716L5.28617 5.08716L3.69951 4.45383L2.77284 6.04716L4.12617 7.1005L4.07951 7.47383C4.05951 7.64716 4.03951 7.82716 4.03951 8.00049C4.03951 8.17383 4.05284 8.35383 4.07951 8.52049L4.12617 8.89383L2.77284 9.94716L3.69284 11.5472L5.28617 10.9072L5.58617 11.1405C5.87284 11.3605 6.15951 11.5272 6.47284 11.6538L6.82617 11.8005L7.07951 13.5005ZM10.3328 8.00049C10.3328 9.28916 9.28817 10.3338 7.99951 10.3338C6.71084 10.3338 5.66617 9.28916 5.66617 8.00049C5.66617 6.71183 6.71084 5.66716 7.99951 5.66716C9.28817 5.66716 10.3328 6.71183 10.3328 8.00049Z" fill="#373434"/>
</svg>
