<svg width="19" height="18" viewBox="0 0 19 18" fill="none" xmlns="http://www.w3.org/2000/svg">
<path d="M8.75 5.25H13.25V6.75H8.75V5.25ZM8.75 8.25H13.25V9.75H8.75V8.25ZM8.75 11.25H13.25V12.75H8.75V11.25ZM5.75 5.25H7.25V6.75H5.75V5.25ZM5.75 8.25H7.25V9.75H5.75V8.25ZM5.75 11.25H7.25V12.75H5.75V11.25ZM15.575 2.25H3.425C3.05 2.25 2.75 2.55 2.75 2.925V15.075C2.75 15.375 3.05 15.75 3.425 15.75H15.575C15.875 15.75 16.25 15.375 16.25 15.075V2.925C16.25 2.55 15.875 2.25 15.575 2.25ZM14.75 14.25H4.25V3.75H14.75V14.25Z" fill="black"/>
</svg>
