<svg width="20" height="19" viewBox="0 0 20 19" fill="none" xmlns="http://www.w3.org/2000/svg">
<path d="M9.08071 10.3382V13.9706C9.08071 14.2085 9.16099 14.4076 9.32156 14.568C9.48195 14.7285 9.68107 14.8088 9.91895 14.8088C10.1568 14.8088 10.3559 14.7285 10.5163 14.568C10.6769 14.4076 10.7572 14.2085 10.7572 13.9706V10.3382H14.3895C14.6274 10.3382 14.8265 10.258 14.9869 10.0974C15.1475 9.937 15.2278 9.73787 15.2278 9.5C15.2278 9.26213 15.1475 9.063 14.9869 8.90262C14.8265 8.74205 14.6274 8.66176 14.3895 8.66176H10.7572V5.02941C10.7572 4.79154 10.6769 4.59241 10.5163 4.43203C10.3559 4.27146 10.1568 4.19118 9.91895 4.19118C9.68107 4.19118 9.48195 4.27146 9.32156 4.43203C9.16099 4.59241 9.08071 4.79154 9.08071 5.02941V8.66176H5.44836C5.21048 8.66176 5.01136 8.74205 4.85097 8.90262C4.69041 9.063 4.61012 9.26213 4.61012 9.5C4.61012 9.73787 4.69041 9.937 4.85097 10.0974C5.01136 10.258 5.21048 10.3382 5.44836 10.3382H9.08071ZM2.43937 19C1.87477 19 1.39689 18.8044 1.00571 18.4132C0.614534 18.0221 0.418945 17.5442 0.418945 16.9796V2.02043C0.418945 1.45583 0.614534 0.977941 1.00571 0.586765C1.39689 0.195588 1.87477 0 2.43937 0H17.3985C17.9631 0 18.441 0.195588 18.8322 0.586765C19.2234 0.977941 19.4189 1.45583 19.4189 2.02043V16.9796C19.4189 17.5442 19.2234 18.0221 18.8322 18.4132C18.441 18.8044 17.9631 19 17.3985 19H2.43937ZM2.43937 17.3235H17.3985C17.4846 17.3235 17.5634 17.2877 17.6349 17.216C17.7066 17.1444 17.7425 17.0656 17.7425 16.9796V2.02043C17.7425 1.93437 17.7066 1.85557 17.6349 1.78404C17.5634 1.71233 17.4846 1.67647 17.3985 1.67647H2.43937C2.35331 1.67647 2.27452 1.71233 2.20299 1.78404C2.13127 1.85557 2.09542 1.93437 2.09542 2.02043V16.9796C2.09542 17.0656 2.13127 17.1444 2.20299 17.216C2.27452 17.2877 2.35331 17.3235 2.43937 17.3235Z" fill="#666161"/>
</svg>
