<svg width="12" height="10" viewBox="0 0 12 10" fill="none" xmlns="http://www.w3.org/2000/svg">
<path d="M10.0322 1.29526C9.29432 0.950951 8.49544 0.701052 7.66328 0.556666C7.65598 0.556433 7.64872 0.557803 7.64201 0.560682C7.6353 0.56356 7.62931 0.567876 7.62444 0.573326C7.52458 0.756585 7.40808 0.995377 7.33041 1.17864C6.44776 1.04536 5.55013 1.04536 4.66748 1.17864C4.58981 0.989824 4.47331 0.756585 4.3679 0.573326C4.36235 0.56222 4.34571 0.556666 4.32907 0.556666C3.4969 0.701052 2.70357 0.950951 1.96017 1.29526C1.95462 1.29526 1.94907 1.30081 1.94353 1.30636C0.434531 3.56656 0.0184486 5.76567 0.223716 7.94257C0.223716 7.95367 0.229264 7.96478 0.240359 7.97033C1.23896 8.70337 2.19872 9.14763 3.14739 9.44196C3.16403 9.44751 3.18068 9.44196 3.18623 9.43085C3.40814 9.12542 3.60786 8.80333 3.77984 8.46458C3.79093 8.44236 3.77984 8.42015 3.75765 8.4146C3.44142 8.29242 3.14184 8.14804 2.84781 7.98144C2.82562 7.97033 2.82562 7.93701 2.84226 7.92035C2.90329 7.87593 2.96431 7.82595 3.02534 7.78152C3.03644 7.77041 3.05308 7.77041 3.06417 7.77597C4.97261 8.64784 7.03083 8.64784 8.91707 7.77597C8.92817 7.77041 8.94481 7.77041 8.95591 7.78152C9.01693 7.8315 9.07796 7.87593 9.13898 7.92591C9.16117 7.94257 9.16117 7.97589 9.13344 7.98699C8.84495 8.15914 8.53982 8.29798 8.2236 8.42015C8.20141 8.4257 8.19586 8.45347 8.20141 8.47013C8.37894 8.80888 8.57866 9.13097 8.79502 9.43641C8.81167 9.44196 8.82831 9.44751 8.84495 9.44196C9.79917 9.14763 10.7589 8.70337 11.7575 7.97033C11.7686 7.96478 11.7742 7.95367 11.7742 7.94257C12.0183 5.42692 11.3692 3.24447 10.0544 1.30636C10.0488 1.30081 10.0433 1.29526 10.0322 1.29526ZM4.06832 6.61532C3.4969 6.61532 3.01979 6.08776 3.01979 5.43802C3.01979 4.78829 3.48581 4.26072 4.06832 4.26072C4.65639 4.26072 5.1224 4.79384 5.11685 5.43802C5.11685 6.08776 4.65084 6.61532 4.06832 6.61532ZM7.93512 6.61532C7.3637 6.61532 6.88659 6.08776 6.88659 5.43802C6.88659 4.78829 7.3526 4.26072 7.93512 4.26072C8.52318 4.26072 8.98919 4.79384 8.98365 5.43802C8.98365 6.08776 8.52318 6.61532 7.93512 6.61532Z" fill="#1C1E19"/>
</svg>
