<svg width="20" height="19" viewBox="0 0 20 19" fill="none" xmlns="http://www.w3.org/2000/svg">
<path d="M6.91895 13.25C7.40478 13.25 7.81795 13.0798 8.15844 12.7395C8.49878 12.399 8.66895 11.9858 8.66895 11.5C8.66895 11.0142 8.49878 10.601 8.15844 10.2605C7.81795 9.92017 7.40478 9.75 6.91895 9.75C6.43311 9.75 6.01995 9.92017 5.67945 10.2605C5.33911 10.601 5.16895 11.0142 5.16895 11.5C5.16895 11.9858 5.33911 12.399 5.67945 12.7395C6.01995 13.0798 6.43311 13.25 6.91895 13.25ZM12.9189 13.25C13.4048 13.25 13.8179 13.0798 14.1584 12.7395C14.4988 12.399 14.6689 11.9858 14.6689 11.5C14.6689 11.0142 14.4988 10.601 14.1584 10.2605C13.8179 9.92017 13.4048 9.75 12.9189 9.75C12.4331 9.75 12.0199 9.92017 11.6794 10.2605C11.3391 10.601 11.1689 11.0142 11.1689 11.5C11.1689 11.9858 11.3391 12.399 11.6794 12.7395C12.0199 13.0798 12.4331 13.25 12.9189 13.25ZM9.91895 8.25C10.4048 8.25 10.8179 8.07983 11.1584 7.7395C11.4988 7.399 11.6689 6.98583 11.6689 6.5C11.6689 6.01417 11.4988 5.601 11.1584 5.2605C10.8179 4.92017 10.4048 4.75 9.91895 4.75C9.43311 4.75 9.01995 4.92017 8.67945 5.2605C8.33911 5.601 8.16895 6.01417 8.16895 6.5C8.16895 6.98583 8.33911 7.399 8.67945 7.7395C9.01995 8.07983 9.43311 8.25 9.91895 8.25ZM9.9207 19C8.6067 19 7.37161 18.7507 6.21545 18.252C5.05928 17.7533 4.05361 17.0766 3.19845 16.2218C2.34328 15.3669 1.6662 14.3617 1.1672 13.206C0.668362 12.0503 0.418945 10.8156 0.418945 9.50175C0.418945 8.18775 0.668279 6.95267 1.16695 5.7965C1.66561 4.64033 2.34236 3.63467 3.1972 2.7795C4.05203 1.92433 5.05728 1.24725 6.21295 0.74825C7.36861 0.249417 8.60336 0 9.9172 0C11.2312 0 12.4663 0.249333 13.6224 0.748C14.7786 1.24667 15.7843 1.92342 16.6394 2.77825C17.4946 3.63308 18.1717 4.63833 18.6707 5.794C19.1695 6.94967 19.4189 8.18442 19.4189 9.49825C19.4189 10.8123 19.1696 12.0473 18.6709 13.2035C18.1723 14.3597 17.4955 15.3653 16.6407 16.2205C15.7859 17.0757 14.7806 17.7528 13.6249 18.2518C12.4693 18.7506 11.2345 19 9.9207 19ZM9.91895 17.5C12.1523 17.5 14.0439 16.725 15.5939 15.175C17.1439 13.625 17.9189 11.7333 17.9189 9.5C17.9189 7.26667 17.1439 5.375 15.5939 3.825C14.0439 2.275 12.1523 1.5 9.91895 1.5C7.68561 1.5 5.79395 2.275 4.24395 3.825C2.69395 5.375 1.91895 7.26667 1.91895 9.5C1.91895 11.7333 2.69395 13.625 4.24395 15.175C5.79395 16.725 7.68561 17.5 9.91895 17.5Z" fill="#201E1E"/>
</svg>
