<svg width="19" height="19" viewBox="0 0 19 19" fill="none" xmlns="http://www.w3.org/2000/svg">
<path d="M1.38365 4.78028L0.388362 4.68311L0.38776 4.68974L1.38365 4.78028ZM4.28023 1.88321L4.1897 0.887316L4.28023 1.88321ZM7.91005 1.55323L7.81951 0.557332L7.91005 1.55323ZM10.4628 2.47754L11.17 1.77044V1.77044L10.4628 2.47754ZM15.6256 7.64027L16.3327 6.93316L15.6256 7.64027ZM15.6258 12.1655L14.9187 11.4584V11.4584L15.6258 12.1655ZM11.666 16.1253L10.9589 15.4182H10.9589L11.666 16.1253ZM10.0205 17.4621L9.71145 16.511H9.71145L10.0205 17.4621ZM7.14771 16.1331L7.85482 15.426L7.85482 15.426L7.14771 16.1331ZM8.7837 17.4618L8.47468 18.4128H8.47468L8.7837 17.4618ZM16.9608 9.28472L16.0097 9.59373L16.9608 9.28472ZM16.9615 10.521L16.0105 10.212V10.212L16.9615 10.521ZM8.99361 1.52373L8.8223 2.50895H8.8223L8.99361 1.52373ZM9.64937 1.76123L10.1485 0.8947V0.894699L9.64937 1.76123ZM1.38503 4.76617L2.38032 4.86333L2.38092 4.8567L1.38503 4.76617ZM1.71727 2.99366L2.59123 3.47965V3.47965L1.71727 2.99366ZM2.49312 2.2178L2.00713 1.34384V1.34384L2.49312 2.2178ZM1.05243 8.42373L2.04832 8.51427L2.04832 8.51427L1.05243 8.42373ZM1.02354 9.49365L0.0383253 9.66496V9.66496L1.02354 9.49365ZM1.97221 10.9576L2.67932 10.2505L2.67932 10.2505L1.97221 10.9576ZM1.2607 10.1494L0.394167 10.6485L0.394168 10.6485L1.2607 10.1494ZM6.34833 5.43401L5.64122 6.14112L6.34833 5.43401ZM6.34833 6.84822L5.64122 6.14112H5.64122L6.34833 6.84822ZM4.93329 6.84807L5.6404 6.14096H5.6404L4.93329 6.84807ZM4.93366 5.43401L5.64077 6.14112L4.93366 5.43401ZM4.37077 2.8791L8.00058 2.54912L7.81951 0.557332L4.1897 0.887316L4.37077 2.8791ZM9.75574 3.18465L14.9185 8.34738L16.3327 6.93316L11.17 1.77044L9.75574 3.18465ZM14.9187 11.4584L10.9589 15.4182L12.3731 16.8324L16.3329 12.8726L14.9187 11.4584ZM10.9589 15.4182C10.5513 15.8258 10.2873 16.0886 10.0704 16.2726C9.8624 16.4491 9.76429 16.4939 9.71145 16.511L10.3295 18.4131C10.7333 18.2819 11.0619 18.0543 11.3645 17.7975C11.6582 17.5483 11.9886 17.2169 12.3731 16.8324L10.9589 15.4182ZM6.4406 16.8402C6.82244 17.222 7.15093 17.5516 7.44311 17.7996C7.74438 18.0552 8.07182 18.2819 8.47468 18.4128L9.09271 16.5107C9.04036 16.4937 8.94333 16.4496 8.73717 16.2747C8.52192 16.092 8.26002 15.8312 7.85482 15.426L6.4406 16.8402ZM9.71145 16.511C9.51108 16.5761 9.29403 16.5761 9.09271 16.5107L8.47468 18.4128C9.07674 18.6085 9.72649 18.6091 10.3295 18.4131L9.71145 16.511ZM14.9185 8.34738C15.3259 8.75485 15.5883 9.01856 15.7718 9.23499C15.9477 9.4424 15.9924 9.54041 16.0097 9.59373L17.9118 8.9757C17.7808 8.57237 17.5539 8.24417 17.2973 7.94152C17.0483 7.64791 16.7172 7.31772 16.3327 6.93316L14.9185 8.34738ZM16.3329 12.8726C16.7173 12.4882 17.0485 12.158 17.2976 11.8645C17.5542 11.5619 17.7815 11.2336 17.9126 10.83L16.0105 10.212C15.9933 10.265 15.9486 10.363 15.7725 10.5705C15.5888 10.7871 15.3262 11.0508 14.9187 11.4584L16.3329 12.8726ZM16.0097 9.59373C16.0754 9.79583 16.0753 10.0124 16.0105 10.212L17.9126 10.83C18.1088 10.2262 18.1072 9.57698 17.9118 8.9757L16.0097 9.59373ZM8.00058 2.54912C8.60299 2.49435 8.72253 2.4916 8.8223 2.50895L9.16492 0.538517C8.74382 0.465297 8.31443 0.51234 7.81951 0.557332L8.00058 2.54912ZM11.17 1.77044C10.8186 1.41908 10.5189 1.10804 10.1485 0.8947L9.15026 2.62777C9.23799 2.6783 9.32797 2.75688 9.75574 3.18465L11.17 1.77044ZM8.8223 2.50895C8.93746 2.52898 9.04859 2.56921 9.15026 2.62777L10.1485 0.894699C9.84425 0.719458 9.51126 0.598739 9.16492 0.538517L8.8223 2.50895ZM2.37892 4.87744L2.3803 4.86333L0.389761 4.66901L0.388384 4.68312L2.37892 4.87744ZM2.38092 4.8567C2.42479 4.3742 2.4534 4.06663 2.49263 3.83203C2.52978 3.6099 2.56614 3.52476 2.59123 3.47965L0.843305 2.50766C0.663845 2.83038 0.576606 3.16381 0.520026 3.50215C0.465534 3.828 0.430303 4.22278 0.389137 4.67564L2.38092 4.8567ZM4.1897 0.887316C3.73204 0.928921 3.33418 0.964477 3.00616 1.01931C2.66577 1.0762 2.33092 1.16378 2.00713 1.34384L2.97912 3.09176C3.025 3.06625 3.11133 3.02947 3.33588 2.99194C3.5728 2.95234 3.88366 2.92338 4.37077 2.8791L4.1897 0.887316ZM2.59123 3.47965C2.68185 3.31669 2.81616 3.18238 2.97912 3.09176L2.00713 1.34384C1.51824 1.6157 1.11517 2.01877 0.843305 2.50766L2.59123 3.47965ZM0.0565376 8.33318C0.0123462 8.81924 -0.0345098 9.24608 0.0383253 9.66496L2.00876 9.32235C1.99178 9.2247 1.9944 9.1074 2.04832 8.51427L0.0565376 8.33318ZM2.67932 10.2505C2.25511 9.8263 2.17718 9.73701 2.12723 9.6503L0.394168 10.6485C0.6069 11.0179 0.917226 11.3168 1.26511 11.6647L2.67932 10.2505ZM0.0383253 9.66496C0.0983879 10.0104 0.218461 10.3435 0.394167 10.6485L2.12723 9.6503C2.06914 9.54944 2.02894 9.43842 2.00876 9.32235L0.0383253 9.66496ZM5.64122 6.14112V6.14112L7.05544 7.55533C7.83648 6.77428 7.83648 5.50795 7.05544 4.7269L5.64122 6.14112ZM5.64122 6.14112L5.6404 6.14096L4.22618 7.55518C5.00704 8.33603 6.27419 8.33657 7.05544 7.55533L5.64122 6.14112ZM5.6404 6.14096L5.64077 6.14112L4.22656 4.7269C3.446 5.50746 3.44465 6.77364 4.22618 7.55518L5.6404 6.14096ZM5.64077 6.14112H5.64122L7.05544 4.7269C6.27439 3.94585 5.00761 3.94585 4.22656 4.7269L5.64077 6.14112ZM2.04832 8.51427L2.37955 4.87081L0.38776 4.68974L0.0565368 8.33319L2.04832 8.51427ZM1.26511 11.6647L6.4406 16.8402L7.85482 15.426L2.67932 10.2505L1.26511 11.6647Z" fill="#666161"/>
</svg>
