<svg width="18" height="19" viewBox="0 0 18 19" fill="none" xmlns="http://www.w3.org/2000/svg">
<path d="M15.9074 1.71799L16.3614 0.826981L16.3614 0.82698L15.9074 1.71799ZM16.7822 2.5918L17.6732 2.13781V2.13781L16.7822 2.5918ZM1.21799 2.5918L0.32698 2.13781L0.32698 2.13781L1.21799 2.5918ZM2.0918 1.71799L2.54579 2.60899L2.0918 1.71799ZM2.0918 17.2822L1.63781 18.1732H1.63781L2.0918 17.2822ZM1.21799 16.4079L2.10899 15.9539L1.21799 16.4079ZM15.2929 17.2071C15.6834 17.5976 16.3166 17.5976 16.7071 17.2071C17.0976 16.8166 17.0976 16.1834 16.7071 15.7929L15.2929 17.2071ZM13.7071 12.7929C13.3166 12.4024 12.6834 12.4024 12.2929 12.7929C11.9024 13.1834 11.9024 13.8166 12.2929 14.2071L13.7071 12.7929ZM7.0002 18.5C7.55248 18.5 8.0002 18.0523 8.0002 17.5C8.0002 16.9477 7.55248 16.5 7.0002 16.5V18.5ZM16 7.5002C16 8.05248 16.4477 8.5002 17 8.5002C17.5523 8.5002 18 8.05248 18 7.5002H16ZM2 14.3002V4.7002H0V14.3002H2ZM4.2002 2.5H13.8002V0.5H4.2002V2.5ZM13.8002 2.5C14.3768 2.5 14.7488 2.50078 15.0319 2.52392C15.3032 2.5461 15.4038 2.58374 15.4534 2.60899L16.3614 0.82698C15.9831 0.634243 15.5902 0.56289 15.1949 0.530573C14.8114 0.499221 14.3437 0.5 13.8002 0.5V2.5ZM18 4.69691C18 4.15444 18.0008 3.68725 17.9695 3.30396C17.9372 2.90906 17.8659 2.516 17.6732 2.13781L15.8912 3.04579C15.9163 3.095 15.9539 3.19554 15.9761 3.46686C15.9992 3.7498 16 4.12146 16 4.69691H18ZM15.4534 2.60899C15.6426 2.70542 15.7959 2.85871 15.8912 3.04579L17.6732 2.13781C17.3851 1.57224 16.9248 1.11405 16.3614 0.826981L15.4534 2.60899ZM2 4.7002C2 4.12365 2.00078 3.75126 2.02393 3.4678C2.04613 3.19595 2.08383 3.09517 2.10899 3.04579L0.32698 2.13781C0.134156 2.51625 0.0628601 2.90962 0.0305674 3.30498C-0.000777125 3.68874 0 4.15663 0 4.7002H2ZM4.2002 0.5C3.65663 0.5 3.18874 0.499223 2.80498 0.530567C2.40962 0.56286 2.01624 0.634156 1.63781 0.826981L2.54579 2.60899C2.59517 2.58383 2.69595 2.54613 2.9678 2.52393C3.25126 2.50078 3.62365 2.5 4.2002 2.5V0.5ZM2.10899 3.04579C2.20487 2.85763 2.35763 2.70487 2.54579 2.60899L1.63781 0.826981C1.07332 1.1146 0.614601 1.57332 0.32698 2.13781L2.10899 3.04579ZM4.19692 16.5C3.62147 16.5 3.24981 16.4992 2.96686 16.4761C2.69554 16.4539 2.595 16.4163 2.54579 16.3912L1.63781 18.1732C2.016 18.3659 2.40906 18.4372 2.80397 18.4695C3.18726 18.5008 3.65446 18.5 4.19692 18.5V16.5ZM0 14.3002C0 14.8437 -0.000778079 15.3115 0.0305709 15.6951C0.0628777 16.0904 0.134207 16.4835 0.326981 16.8619L2.10899 15.9539C2.08378 15.9044 2.04612 15.8037 2.02393 15.5322C2.00078 15.2489 2 14.8768 2 14.3002H0ZM2.54579 16.3912C2.35819 16.2956 2.20515 16.1426 2.10899 15.9539L0.326981 16.8619C0.614313 17.4258 1.07276 17.8853 1.63781 18.1732L2.54579 16.3912ZM16.7071 15.7929L13.7071 12.7929L12.2929 14.2071L15.2929 17.2071L16.7071 15.7929ZM10.5 13.5C9.11929 13.5 8 12.3807 8 11H6C6 13.4853 8.01472 15.5 10.5 15.5V13.5ZM8 11C8 9.61929 9.11929 8.5 10.5 8.5V6.5C8.01472 6.5 6 8.51472 6 11H8ZM10.5 8.5C11.8807 8.5 13 9.61929 13 11H15C15 8.51472 12.9853 6.5 10.5 6.5V8.5ZM13 11C13 12.3807 11.8807 13.5 10.5 13.5V15.5C12.9853 15.5 15 13.4853 15 11H13ZM7.0002 16.5H4.19692V18.5H7.0002V16.5ZM16 4.69691V7.5002H18V4.69691H16Z" fill="#201E1E"/>
</svg>
