<svg width="20" height="19" viewBox="0 0 20 19" fill="none" xmlns="http://www.w3.org/2000/svg">
<path d="M9.9192 14.25C10.1319 14.25 10.3099 14.1781 10.4534 14.0343C10.5971 13.8906 10.6689 13.7125 10.6689 13.5V9.25C10.6689 9.0375 10.597 8.85933 10.4532 8.7155C10.3094 8.57183 10.1312 8.5 9.9187 8.5C9.70603 8.5 9.52795 8.57183 9.38445 8.7155C9.24078 8.85933 9.16895 9.0375 9.16895 9.25V13.5C9.16895 13.7125 9.24086 13.8906 9.3847 14.0343C9.52853 14.1781 9.7067 14.25 9.9192 14.25ZM9.91895 6.7885C10.1478 6.7885 10.3396 6.71108 10.4944 6.55625C10.6493 6.40142 10.7267 6.20958 10.7267 5.98075C10.7267 5.75192 10.6493 5.56008 10.4944 5.40525C10.3396 5.25058 10.1478 5.17325 9.91895 5.17325C9.69011 5.17325 9.49828 5.25058 9.34345 5.40525C9.18861 5.56008 9.1112 5.75192 9.1112 5.98075C9.1112 6.20958 9.18861 6.40142 9.34345 6.55625C9.49828 6.71108 9.69011 6.7885 9.91895 6.7885ZM9.9207 19C8.6067 19 7.37161 18.7507 6.21545 18.252C5.05928 17.7533 4.05361 17.0766 3.19845 16.2218C2.34328 15.3669 1.6662 14.3617 1.1672 13.206C0.668362 12.0503 0.418945 10.8156 0.418945 9.50175C0.418945 8.18775 0.668279 6.95267 1.16695 5.7965C1.66561 4.64033 2.34236 3.63467 3.1972 2.7795C4.05203 1.92433 5.05728 1.24725 6.21295 0.74825C7.36861 0.249417 8.60336 0 9.9172 0C11.2312 0 12.4663 0.249333 13.6224 0.748C14.7786 1.24667 15.7843 1.92342 16.6394 2.77825C17.4946 3.63308 18.1717 4.63833 18.6707 5.794C19.1695 6.94967 19.4189 8.18442 19.4189 9.49825C19.4189 10.8123 19.1696 12.0473 18.6709 13.2035C18.1723 14.3597 17.4955 15.3653 16.6407 16.2205C15.7859 17.0757 14.7806 17.7528 13.6249 18.2518C12.4693 18.7506 11.2345 19 9.9207 19ZM9.91895 17.5C12.1523 17.5 14.0439 16.725 15.5939 15.175C17.1439 13.625 17.9189 11.7333 17.9189 9.5C17.9189 7.26667 17.1439 5.375 15.5939 3.825C14.0439 2.275 12.1523 1.5 9.91895 1.5C7.68561 1.5 5.79395 2.275 4.24395 3.825C2.69395 5.375 1.91895 7.26667 1.91895 9.5C1.91895 11.7333 2.69395 13.625 4.24395 15.175C5.79395 16.725 7.68561 17.5 9.91895 17.5Z" fill="#666161"/>
</svg>
