<svg width="17" height="8" viewBox="0 0 17 8" fill="none" xmlns="http://www.w3.org/2000/svg">
<path d="M1.8457 5.5C1.29342 5.5 0.845703 5.94772 0.845703 6.5C0.845703 7.05228 1.29342 7.5 1.8457 7.5V5.5ZM15.8457 7.5C16.398 7.5 16.8457 7.05228 16.8457 6.5C16.8457 5.94772 16.398 5.5 15.8457 5.5V7.5ZM1.8457 0.5C1.29342 0.5 0.845703 0.947715 0.845703 1.5C0.845703 2.05228 1.29342 2.5 1.8457 2.5V0.5ZM15.8457 2.5C16.398 2.5 16.8457 2.05228 16.8457 1.5C16.8457 0.947715 16.398 0.5 15.8457 0.5V2.5ZM1.8457 7.5H15.8457V5.5H1.8457V7.5ZM1.8457 2.5H15.8457V0.5H1.8457V2.5Z" fill="#807979"/>
</svg>
