<svg width="17" height="16" viewBox="0 0 17 16" fill="none" xmlns="http://www.w3.org/2000/svg">
<path d="M13.8457 14C13.8457 14.5523 14.2934 15 14.8457 15C15.398 15 15.8457 14.5523 15.8457 14C15.8457 13.4477 15.398 13 14.8457 13C14.2934 13 13.8457 13.4477 13.8457 14Z" fill="#373434"/>
<path d="M7.8457 14C7.8457 14.5523 8.29342 15 8.8457 15C9.39799 15 9.8457 14.5523 9.8457 14C9.8457 13.4477 9.39799 13 8.8457 13C8.29342 13 7.8457 13.4477 7.8457 14Z" fill="#373434"/>
<path d="M1.8457 14C1.8457 14.5523 2.29342 15 2.8457 15C3.39799 15 3.8457 14.5523 3.8457 14C3.8457 13.4477 3.39799 13 2.8457 13C2.29342 13 1.8457 13.4477 1.8457 14Z" fill="#373434"/>
<path d="M13.8457 8C13.8457 8.55228 14.2934 9 14.8457 9C15.398 9 15.8457 8.55228 15.8457 8C15.8457 7.44772 15.398 7 14.8457 7C14.2934 7 13.8457 7.44772 13.8457 8Z" fill="#373434"/>
<path d="M7.8457 8C7.8457 8.55228 8.29342 9 8.8457 9C9.39799 9 9.8457 8.55228 9.8457 8C9.8457 7.44772 9.39799 7 8.8457 7C8.29342 7 7.8457 7.44772 7.8457 8Z" fill="#373434"/>
<path d="M1.8457 8C1.8457 8.55228 2.29342 9 2.8457 9C3.39799 9 3.8457 8.55228 3.8457 8C3.8457 7.44772 3.39799 7 2.8457 7C2.29342 7 1.8457 7.44772 1.8457 8Z" fill="#373434"/>
<path d="M13.8457 2C13.8457 2.55228 14.2934 3 14.8457 3C15.398 3 15.8457 2.55228 15.8457 2C15.8457 1.44772 15.398 1 14.8457 1C14.2934 1 13.8457 1.44772 13.8457 2Z" fill="#373434"/>
<path d="M7.8457 2C7.8457 2.55228 8.29342 3 8.8457 3C9.39799 3 9.8457 2.55228 9.8457 2C9.8457 1.44772 9.39799 1 8.8457 1C8.29342 1 7.8457 1.44772 7.8457 2Z" fill="#373434"/>
<path d="M1.8457 2C1.8457 2.55228 2.29342 3 2.8457 3C3.39799 3 3.8457 2.55228 3.8457 2C3.8457 1.44772 3.39799 1 2.8457 1C2.29342 1 1.8457 1.44772 1.8457 2Z" fill="#373434"/>
<path d="M14.8457 14H12.8457C12.8457 15.1046 13.7411 16 14.8457 16V14ZM14.8457 14V16C15.9503 16 16.8457 15.1046 16.8457 14H14.8457ZM14.8457 14H16.8457C16.8457 12.8954 15.9503 12 14.8457 12V14ZM14.8457 12C13.7411 12 12.8457 12.8954 12.8457 14H14.8457V12ZM8.8457 14H6.8457C6.8457 15.1046 7.74113 16 8.8457 16V14ZM8.8457 14V16C9.95027 16 10.8457 15.1046 10.8457 14H8.8457ZM8.8457 14H10.8457C10.8457 12.8954 9.95027 12 8.8457 12V14ZM8.8457 12C7.74113 12 6.8457 12.8954 6.8457 14H8.8457V12ZM2.8457 14H0.845703C0.845703 15.1046 1.74113 16 2.8457 16V14ZM2.8457 14V16C3.95027 16 4.8457 15.1046 4.8457 14H2.8457ZM2.8457 14H4.8457C4.8457 12.8954 3.95027 12 2.8457 12V14ZM2.8457 12C1.74113 12 0.845703 12.8954 0.845703 14H2.8457V12ZM14.8457 8H12.8457C12.8457 9.10457 13.7411 10 14.8457 10V8ZM14.8457 8V10C15.9503 10 16.8457 9.10457 16.8457 8H14.8457ZM14.8457 8H16.8457C16.8457 6.89543 15.9503 6 14.8457 6V8ZM14.8457 6C13.7411 6 12.8457 6.89543 12.8457 8H14.8457V6ZM8.8457 8H6.8457C6.8457 9.10457 7.74113 10 8.8457 10V8ZM8.8457 8V10C9.95027 10 10.8457 9.10457 10.8457 8H8.8457ZM8.8457 8H10.8457C10.8457 6.89543 9.95027 6 8.8457 6V8ZM8.8457 6C7.74113 6 6.8457 6.89543 6.8457 8H8.8457V6ZM2.8457 8H0.845703C0.845703 9.10457 1.74113 10 2.8457 10V8ZM2.8457 8V10C3.95027 10 4.8457 9.10457 4.8457 8H2.8457ZM2.8457 8H4.8457C4.8457 6.89543 3.95027 6 2.8457 6V8ZM2.8457 6C1.74113 6 0.845703 6.89543 0.845703 8H2.8457V6ZM14.8457 2H12.8457C12.8457 3.10457 13.7411 4 14.8457 4V2ZM14.8457 2V4C15.9503 4 16.8457 3.10457 16.8457 2H14.8457ZM14.8457 2H16.8457C16.8457 0.89543 15.9503 0 14.8457 0V2ZM14.8457 0C13.7411 0 12.8457 0.89543 12.8457 2H14.8457V0ZM8.8457 2H6.8457C6.8457 3.10457 7.74113 4 8.8457 4V2ZM8.8457 2V4C9.95027 4 10.8457 3.10457 10.8457 2H8.8457ZM8.8457 2H10.8457C10.8457 0.895431 9.95027 0 8.8457 0V2ZM8.8457 0C7.74113 0 6.8457 0.895431 6.8457 2H8.8457V0ZM2.8457 2H0.845703C0.845703 3.10457 1.74113 4 2.8457 4V2ZM2.8457 2V4C3.95027 4 4.8457 3.10457 4.8457 2H2.8457ZM2.8457 2H4.8457C4.8457 0.895431 3.95027 0 2.8457 0V2ZM2.8457 0C1.74113 0 0.845703 0.895431 0.845703 2H2.8457V0Z" fill="#373434"/>
</svg>
