<svg
  width="33"
  height="22"
  viewBox="0 0 33 22"
  fill="none"
  xmlns="http://www.w3.org/2000/svg"
>
  <g filter="url(#filter0_i_36_3842)">
    <path
      d="M1.06053 21.6892C0.229464 21.6803 0.0133969 21.4666 0.234424 20.6729C0.51734 19.6518 0.795835 18.5995 1.29536 17.6765C1.68437 16.9541 2.36955 16.3789 2.98843 15.8127C3.40396 15.4337 3.66035 15.0368 3.54984 14.4884C3.4128 13.7794 3.39512 13.1641 4.0582 12.6201C4.403 12.3392 4.58425 11.7863 4.71244 11.3225C4.83622 10.8677 5.0263 10.5333 5.45067 10.3549C6.01208 10.1231 6.39667 9.69057 6.58676 9.15104C7.03323 7.85795 8.15163 7.69743 9.23025 7.4299C9.51758 7.35855 9.78282 7.20695 10.0569 7.08656C10.1851 7.02859 10.3 6.94387 10.4326 6.90374C11.2504 6.64959 11.7897 6.10114 12.0771 5.29853C12.2097 4.9329 12.3688 4.57173 12.4705 4.19718C12.6341 3.57739 13.0408 3.26527 13.6199 3.06462C14.0265 2.92639 14.3979 2.67669 14.778 2.46266C15.251 2.19513 15.6975 1.88746 16.1793 1.63776C17.0679 1.18296 17.9608 0.732605 18.8759 0.335761C19.0881 0.242124 19.4285 0.291172 19.6451 0.398186C20.2065 0.679098 20.7193 1.06256 21.2762 1.34794C21.9216 1.68235 22.4035 2.11487 22.5936 2.85059C22.6599 3.11367 22.8013 3.41241 23.0047 3.57293C23.6943 4.11692 24.3795 4.70104 25.1575 5.08005C25.8957 5.44122 26.4969 5.91386 27.0583 6.48015C27.5932 7.01968 28.1104 7.59488 28.7072 8.05414C29.2509 8.47328 29.609 8.96377 29.8742 9.58801C30.1306 10.1855 30.5904 10.7072 30.7804 11.3181C30.9617 11.9022 30.9219 12.5621 30.944 13.1864C30.9749 14.1361 30.8467 15.0948 31.1739 16.0267C31.333 16.486 31.386 16.9854 31.4877 17.4669C31.5496 17.7612 31.6115 18.0555 31.6734 18.3498C31.8723 19.2549 32.1154 20.1512 32.2569 21.0653C32.3144 21.4354 31.9872 21.7115 31.585 21.6892C27.6743 21.7379 23.5505 21.6967 19.5124 21.7026C18.646 21.7026 17.7796 21.6803 16.9132 21.6892C16.5286 21.6892 16.4004 21.551 16.4136 21.1497C16.4755 19.4909 16.3075 17.6408 15.7329 16.0668C15.5384 15.5273 15.1847 15.184 14.6277 15.0101C14.3006 14.9075 13.9381 14.7693 13.7038 14.5329C12.8507 13.6545 13.3119 14.2533 12.2156 13.9546C12.0344 13.9055 11.7426 13.9278 11.6189 14.0437C11.0044 14.6189 10.4209 15.1808 10.3767 16.1617C10.3237 17.3968 10.0874 17.8236 9.85312 19.0365C9.73819 19.6384 9.53926 20.2092 9.54811 20.8423C9.55695 21.3551 9.12373 21.6761 8.61095 21.6761C6.09488 21.6761 3.57642 21.7114 1.06053 21.6892Z"
      fill="url(#paint0_linear_36_3842)"
    />
  </g>
  <defs>
    <filter
      id="filter0_i_36_3842"
      x="0.15332"
      y="0.286133"
      width="32.1104"
      height="25.4268"
      filterUnits="userSpaceOnUse"
      color-interpolation-filters="sRGB"
    >
      <feFlood flood-opacity="0" result="BackgroundImageFix" />
      <feBlend
        mode="normal"
        in="SourceGraphic"
        in2="BackgroundImageFix"
        result="shape"
      />
      <feColorMatrix
        in="SourceAlpha"
        type="matrix"
        values="0 0 0 0 0 0 0 0 0 0 0 0 0 0 0 0 0 0 127 0"
        result="hardAlpha"
      />
      <feOffset dy="4" />
      <feGaussianBlur stdDeviation="2" />
      <feComposite in2="hardAlpha" operator="arithmetic" k2="-1" k3="1" />
      <feColorMatrix
        type="matrix"
        values="0 0 0 0 0 0 0 0 0 0 0 0 0 0 0 0 0 0 0.25 0"
      />
      <feBlend mode="normal" in2="shape" result="effect1_innerShadow_36_3842" />
    </filter>
    <linearGradient
      id="paint0_linear_36_3842"
      x1="19.6533"
      y1="0.647461"
      x2="10.6533"
      y2="21.6475"
      gradientUnits="userSpaceOnUse"
    >
      <stop />
      <stop offset="1" stop-color="#5C5C5C" />
    </linearGradient>
  </defs>
</svg>