<svg width="25" height="24" viewBox="0 0 25 24" fill="none" xmlns="http://www.w3.org/2000/svg">
<path fill-rule="evenodd" clip-rule="evenodd" d="M15.6018 13.269L21.3318 18.999L19.8418 20.489L14.1118 14.759C13.0418 15.529 11.7518 15.999 10.3418 15.999C6.7518 15.999 3.8418 13.089 3.8418 9.49902C3.8418 5.90902 6.7518 2.99902 10.3418 2.99902C13.9318 2.99902 16.8418 5.90902 16.8418 9.49902C16.8418 10.909 16.3718 12.199 15.6018 13.269ZM10.3418 4.99902C7.8518 4.99902 5.8418 7.00902 5.8418 9.49902C5.8418 11.989 7.8518 13.999 10.3418 13.999C12.8318 13.999 14.8418 11.989 14.8418 9.49902C14.8418 7.00902 12.8318 4.99902 10.3418 4.99902Z" fill="#373434"/>
</svg>
