<svg width="12" height="10" viewBox="0 0 12 10" fill="none" xmlns="http://www.w3.org/2000/svg">
<path fill-rule="evenodd" clip-rule="evenodd" d="M10.0535 8.86156V8.86055L10.064 8.83862L11.8248 1.13027V1.1058C11.8248 0.9136 11.7426 0.745872 11.5653 0.645439C11.4097 0.557242 11.2306 0.551124 11.105 0.559281C10.988 0.568466 10.8726 0.588986 10.761 0.620459C10.7133 0.633793 10.6663 0.648759 10.62 0.665322L10.6124 0.667871L0.795824 4.01173L0.792888 4.01275C0.763043 4.0216 0.733831 4.03198 0.705408 4.04384C0.635593 4.07108 0.56861 4.10349 0.505201 4.14071C0.378971 4.21616 0.13884 4.39357 0.179351 4.67499C0.212817 4.90848 0.397759 5.05633 0.522815 5.13331C0.59663 5.17823 0.675991 5.21585 0.759423 5.24547L0.77821 5.25261L0.784081 5.25414L0.788191 5.25567L2.50609 5.75783C2.50022 5.85113 2.51079 5.94646 2.53956 6.04078L3.39968 8.87482C3.44667 9.0293 3.54821 9.16712 3.69003 9.26893C3.83185 9.37074 4.00683 9.43141 4.1904 9.44244C4.37397 9.45346 4.5569 9.41428 4.71351 9.33039C4.87012 9.24651 4.99254 9.12214 5.06357 8.97474L6.40689 7.72774L8.71367 9.2633L8.74655 9.27553C8.95615 9.35506 9.15166 9.38004 9.33073 9.35914C9.5098 9.33773 9.65189 9.27247 9.75874 9.19855C9.88233 9.11154 9.98084 9.00069 10.0464 8.87482L10.0511 8.86615L10.0529 8.86309L10.0535 8.86156ZM3.39088 5.84603C3.38135 5.81458 3.38362 5.78132 3.39734 5.75107C3.41107 5.72081 3.43554 5.69515 3.4672 5.67779L9.29198 2.46598C9.29198 2.46598 9.63486 2.28499 9.62253 2.46598C9.62253 2.46598 9.68359 2.49759 9.49982 2.64594C9.32604 2.78716 5.34832 6.12184 4.94556 6.45933C4.92317 6.47821 4.90748 6.50228 4.90035 6.52867L4.251 8.68007L3.39088 5.84603Z" fill="#1C1E19"/>
</svg>
