<svg width="18" height="17" viewBox="0 0 18 17" fill="none" xmlns="http://www.w3.org/2000/svg">
<path d="M17.0005 3.5L18.0005 3.50008C18.0005 3.23485 17.8951 2.98047 17.7076 2.79292C17.52 2.60537 17.2657 2.5 17.0005 2.5V3.5ZM11.1543 9.4375L11.8669 10.1391L11.8669 10.1391L11.1543 9.4375ZM8.07668 9.43749L8.78925 8.73588L8.78924 8.73588L8.07668 9.43749ZM7.87207 9.23535L8.539 8.49023L8.539 8.49023L7.87207 9.23535ZM5.00078 9.43671L5.71335 10.1383L5.71335 10.1383L5.00078 9.43671ZM5.20461 9.23535L4.53768 8.49023L4.53767 8.49023L5.20461 9.23535ZM10.9492 9.63964L11.6161 10.3848L11.6161 10.3848L10.9492 9.63964ZM8.28223 9.63965L8.94915 8.89453L8.94915 8.89452L8.28223 9.63965ZM16 9.49993C16 10.0522 16.4476 10.5 16.9999 10.5C17.5522 10.5 18 10.0524 18 9.50007L16 9.49993ZM11 2.5C10.4477 2.5 10 2.94772 10 3.5C10 4.05228 10.4477 4.5 11 4.5V2.5ZM0.287433 12.7984C-0.100052 13.1919 -0.095144 13.8251 0.298396 14.2126C0.691936 14.6001 1.32508 14.5951 1.71257 14.2016L0.287433 12.7984ZM16.2879 2.7984L10.4417 8.7359L11.8669 10.1391L17.713 4.2016L16.2879 2.7984ZM8.78924 8.73588C8.69497 8.64013 8.61545 8.55866 8.539 8.49023L7.20514 9.98047C7.22271 9.99619 7.2483 10.0215 7.36411 10.1391L8.78924 8.73588ZM5.71335 10.1383C5.82864 10.0212 5.85408 9.9961 5.87154 9.98047L4.53767 8.49023C4.46134 8.55856 4.38201 8.63984 4.28821 8.73511L5.71335 10.1383ZM8.539 8.49023C7.39995 7.47072 5.67672 7.47072 4.53768 8.49023L5.87153 9.98047C6.25121 9.64064 6.82546 9.64064 7.20514 9.98047L8.539 8.49023ZM10.4417 8.73589C10.3287 8.85065 10.3005 8.87819 10.2823 8.89452L11.6161 10.3848C11.6919 10.317 11.7699 10.2376 11.8669 10.1391L10.4417 8.73589ZM7.36411 10.1391C7.4637 10.2402 7.54027 10.3176 7.6153 10.3848L8.94915 8.89452C8.93016 8.87752 8.89976 8.84813 8.78925 8.73588L7.36411 10.1391ZM10.2823 8.89451C9.9026 9.23436 9.32883 9.23435 8.94915 8.89453L7.6153 10.3848C8.75435 11.4043 10.4771 11.4043 11.6161 10.3848L10.2823 8.89451ZM18 9.50007L18.0005 3.50008L16.0005 3.49992L16 9.49993L18 9.50007ZM17.0005 2.5H11V4.5H17.0005V2.5ZM4.28821 8.7351L0.287433 12.7984L1.71257 14.2016L5.71335 10.1383L4.28821 8.7351Z" fill="#666161"/>
</svg>
